<?xml version="1.0" standalone="no"?>
<!DOCTYPE svg PUBLIC "-//W3C//DTD SVG 20010904//EN"
 "http://www.w3.org/TR/2001/REC-SVG-20010904/DTD/svg10.dtd">
<svg version="1.0" xmlns="http://www.w3.org/2000/svg"
 width="700.000000pt" height="700.000000pt" viewBox="0 0 700.000000 700.000000"
 preserveAspectRatio="xMidYMid meet">
<metadata>
Created by potrace 1.11, written by Peter Selinger 2001-2013
</metadata>
<g transform="translate(0.000000,700.000000) scale(0.100000,-0.100000)"
fill="#000000" stroke="none">
<path d="M3537 6994 c-1 -1 -51 -4 -110 -8 -111 -6 -160 -21 -185 -57 -8 -11
-32 -20 -70 -25 -64 -7 -159 -39 -181 -60 -13 -11 -11 -17 13 -39 36 -33 24
-48 -42 -51 -61 -2 -82 -13 -154 -80 -64 -59 -131 -88 -223 -98 -87 -10 -114
-15 -170 -31 -65 -18 -152 -32 -240 -39 -97 -8 -182 -24 -234 -43 -37 -13 -52
-14 -92 -4 -83 22 -174 -17 -282 -119 -32 -30 -73 -62 -90 -70 -19 -9 -39 -30
-49 -51 -24 -51 -74 -87 -218 -158 -125 -61 -187 -107 -215 -161 -8 -15 -28
-66 -45 -111 -17 -46 -45 -106 -64 -134 -18 -28 -40 -64 -49 -80 -22 -44 -81
-100 -172 -164 -108 -75 -165 -137 -210 -224 -53 -103 -106 -189 -178 -289
-230 -321 -232 -323 -241 -429 -4 -41 -9 -89 -11 -105 -20 -159 -24 -562 -7
-614 14 -42 57 -71 94 -65 30 6 48 -12 43 -40 -2 -11 -4 -25 -4 -31 -1 -6 -10
-21 -21 -34 -11 -13 -20 -28 -20 -35 0 -14 25 -37 57 -54 31 -16 232 -62 209
-48 -116 73 -173 134 -180 194 -3 24 3 41 25 69 16 20 30 43 30 50 1 8 3 23 4
34 1 11 3 29 4 40 0 12 12 32 25 45 28 28 63 26 128 -7 46 -22 47 -37 8 -63
-85 -57 -26 -72 213 -55 27 2 181 -76 222 -111 28 -25 35 -38 35 -68 0 -39
-26 -125 -54 -179 -25 -48 -52 -49 -197 -13 -124 32 -209 41 -259 27 -33 -9
-76 -9 -243 -1 l-138 7 2 -120 c0 -68 6 -130 13 -143 8 -17 26 -27 63 -35 28
-6 87 -26 130 -44 94 -39 223 -78 357 -105 84 -18 222 -66 292 -101 85 -44
127 -135 68 -150 -26 -7 -273 1 -324 10 -14 3 -63 7 -110 11 -47 3 -103 8
-125 10 -22 3 -67 7 -100 10 -33 2 -89 7 -125 10 -36 4 -82 8 -102 9 l-38 4 0
-102 c0 -133 8 -148 85 -163 87 -17 149 -22 355 -28 102 -3 235 -8 295 -11 61
-3 117 -6 125 -6 30 0 105 -22 127 -36 28 -18 45 -76 58 -199 4 -43 2 -52 -13
-57 -24 -7 -250 -21 -492 -31 -376 -15 -464 -26 -514 -66 -23 -18 -26 -27 -26
-83 l0 -63 38 3 c20 1 105 5 187 9 204 8 284 13 555 30 162 11 174 10 194 -10
15 -15 15 -57 1 -125 -2 -14 -7 -41 -10 -60 -12 -74 -36 -84 -348 -136 -84
-14 -186 -37 -227 -51 -62 -22 -95 -27 -190 -28 -63 -2 -125 -3 -138 -4 -33
-2 -62 -36 -62 -73 0 -63 -1 -63 222 -63 l203 0 54 -34 c44 -29 63 -34 116
-36 40 -1 72 -8 89 -19 38 -24 84 -91 103 -150 17 -56 26 -247 12 -283 -9 -26
-45 -46 -113 -62 -69 -17 -77 -7 -63 81 8 53 7 71 -3 83 -12 14 -15 14 -31 -1
-11 -10 -19 -21 -19 -25 0 -24 -53 -120 -72 -130 -12 -7 -79 -13 -152 -15
-104 -3 -133 -7 -143 -20 -6 -8 -10 -21 -9 -27 19 -104 58 -170 201 -342 234
-281 275 -320 332 -313 44 5 40 35 -12 93 -25 27 -45 55 -45 62 0 16 -41 90
-105 188 -58 89 -85 138 -85 156 0 18 35 44 120 88 l79 41 24 -32 c13 -18 49
-80 79 -138 31 -58 76 -139 102 -180 92 -151 117 -200 123 -234 6 -37 4 -40
-74 -96 -70 -49 -36 -75 96 -72 86 2 134 22 276 113 123 79 227 132 280 143
67 14 75 14 90 0 13 -14 13 -19 0 -52 -9 -20 -22 -44 -30 -52 -8 -9 -15 -20
-15 -24 0 -8 105 -2 200 10 52 6 256 13 417 14 l141 0 0 48 c-1 122 8 142 64
142 l31 0 -22 -24 c-13 -14 -18 -26 -12 -30 5 -4 67 -7 138 -8 172 -1 223 11
223 52 0 20 -72 89 -95 91 -8 1 -21 2 -27 3 -7 1 -33 -4 -58 -11 -145 -43
-217 -47 -127 -7 l42 19 -35 5 c-19 3 -51 3 -70 0 -29 -4 -35 -10 -35 -29 0
-13 -5 -26 -11 -28 -18 -6 -35 22 -40 69 -2 23 -9 64 -15 91 -6 26 -9 54 -6
61 8 21 57 25 377 31 257 5 482 13 486 18 1 1 5 38 8 83 7 93 27 168 64 239
24 46 26 59 24 155 -3 152 3 185 45 231 19 21 41 39 48 39 7 0 18 7 25 15 11
13 8 15 -19 16 -17 1 -34 2 -38 4 -28 7 -61 26 -82 47 -46 43 -85 68 -126 79
-66 18 -196 165 -181 206 10 24 61 -14 90 -68 33 -59 44 -68 97 -75 57 -8 95
-28 142 -73 36 -34 41 -36 105 -36 82 0 105 5 212 45 104 38 140 40 216 7 102
-44 115 -46 155 -26 73 36 185 168 214 250 22 60 122 140 234 185 84 34 85 33
77 -125 -3 -75 -8 -154 -11 -176 -3 -22 -7 -69 -10 -105 -3 -36 -8 -89 -11
-118 -3 -30 -6 -98 -7 -153 0 -88 2 -102 21 -122 27 -29 27 -41 1 -78 -42 -59
-28 -91 65 -145 80 -47 112 -85 138 -167 12 -38 35 -87 52 -109 65 -86 62 -78
38 -97 -11 -9 -25 -27 -30 -41 -13 -36 -8 -107 10 -127 28 -33 28 -53 3 -115
-26 -63 -41 -139 -49 -242 l-5 -58 317 4 c279 4 324 7 372 24 79 28 96 61 84
164 -11 95 -6 124 24 128 26 4 28 15 6 33 -26 21 -46 67 -32 75 15 9 99 6 152
-6 22 -5 45 -5 49 -1 14 14 -42 69 -98 96 -104 52 -106 88 -2 80 38 -3 80 3
129 17 140 40 191 47 298 44 133 -4 166 -18 220 -92 76 -102 121 -96 121 14 1
64 -13 120 -38 159 -25 38 -7 50 137 88 l85 22 -50 8 c-72 11 -116 31 -148 68
-19 21 -27 26 -22 12 3 -10 9 -38 12 -62 10 -75 -24 -50 -76 55 -30 60 -77
178 -86 214 -11 51 -80 200 -127 276 -30 48 -59 100 -66 115 -31 72 -22 150
20 160 11 3 116 6 234 7 118 0 234 3 257 6 57 7 97 24 97 40 0 15 -38 54 -54
55 -6 0 -1 4 12 9 17 7 34 4 67 -11 25 -12 45 -25 45 -30 0 -5 7 -9 15 -9 8 0
15 5 15 11 0 17 -79 88 -123 110 l-38 20 -44 -25 c-24 -14 -45 -21 -47 -16 -2
6 -20 2 -42 -10 -44 -22 -50 -20 -131 44 -34 28 -38 29 -47 12 -9 -16 -12 -14
-32 16 -35 51 -50 106 -50 189 -1 91 14 120 72 137 22 7 58 31 82 54 36 36 39
43 24 48 -27 10 -91 -7 -125 -33 -30 -22 -31 -22 -45 -3 -8 11 -11 28 -8 38 4
13 -3 26 -22 41 l-28 22 29 5 c24 4 31 11 33 32 4 36 -72 113 -129 129 -75 23
-122 104 -60 104 15 0 27 8 32 23 6 17 16 22 41 22 47 0 76 10 82 27 9 22 -13
45 -36 38 -35 -12 -144 77 -132 108 6 17 -51 77 -73 77 -11 0 -34 -16 -53 -35
-19 -19 -37 -35 -42 -35 -9 0 -40 32 -75 77 l-25 33 31 35 c17 20 31 42 31 49
0 19 25 38 83 61 50 20 73 45 43 45 -37 0 -38 119 -1 150 23 19 18 40 -10 41
-14 1 -38 3 -55 4 -16 1 -41 3 -55 4 -35 1 -41 25 -19 73 22 49 21 74 -5 125
-33 62 -45 155 -44 333 0 197 -20 192 238 61 121 -61 223 -110 227 -109 5 2
32 55 62 118 29 63 71 153 93 200 48 101 74 182 63 200 -9 15 -12 11 -61 -85
-51 -100 -99 -116 -130 -43 -6 16 -17 28 -23 28 -6 0 -34 -39 -61 -86 -52 -89
-78 -116 -89 -89 -7 20 -30 19 -108 -9 l-67 -24 -5 32 c-23 142 -30 487 -12
571 15 71 52 140 83 154 20 9 26 6 50 -25 65 -84 60 -80 80 -66 39 27 69 34
123 28 73 -9 84 -21 81 -95 -2 -71 10 -101 44 -101 28 0 80 41 100 79 39 76
33 183 -14 249 -29 41 -41 33 -41 -26 0 -47 -17 -94 -34 -96 -11 -1 -23 21
-31 57 -5 27 -9 28 -46 24 -29 -3 -46 1 -64 15 -14 11 -31 18 -38 15 -17 -6
-74 18 -109 48 -36 30 -81 55 -111 61 -24 4 -47 30 -47 51 0 25 29 25 82 -1
29 -13 79 -32 111 -41 54 -15 59 -19 54 -41 -6 -34 14 -58 42 -49 19 6 21 11
15 38 -13 62 -22 72 -89 107 -82 42 -97 60 -71 89 33 37 132 25 142 -15 4 -17
23 -32 58 -49 28 -13 67 -38 86 -55 47 -42 83 -60 99 -51 21 13 -2 45 -64 91
-82 60 -237 219 -475 485 -25 27 -47 52 -50 55 -39 39 -131 205 -170 305 -33
85 -82 176 -113 208 -18 20 -28 45 -33 83 -3 30 -9 54 -12 54 -4 0 -16 -12
-29 -27 l-22 -28 -39 42 c-21 23 -52 45 -68 48 -87 20 -117 31 -200 71 -102
49 -130 53 -168 23 l-27 -21 7 41 c6 39 5 42 -27 55 -19 8 -74 48 -124 90 -68
56 -112 84 -178 112 -49 20 -121 55 -160 77 -40 22 -83 46 -97 53 -14 7 -40
29 -59 48 -27 28 -32 39 -27 62 7 26 6 26 -24 20 -20 -3 -39 0 -53 9 -12 8
-49 17 -82 21 -51 6 -512 13 -518 8z m90 -766 c82 -88 203 -291 203 -343 0
-32 34 -70 88 -102 46 -26 85 -54 209 -150 61 -48 124 -83 213 -121 59 -25
109 -72 116 -111 9 -43 17 -45 60 -16 77 52 88 32 87 -148 0 -78 -3 -191 -7
-252 -3 -60 -8 -159 -11 -220 -4 -60 -8 -140 -10 -176 l-3 -67 65 -63 c76 -74
103 -114 126 -184 37 -114 70 -330 68 -454 0 -94 -6 -118 -32 -146 -45 -49
-49 -88 -53 -490 -4 -340 0 -309 -39 -302 -60 10 -196 69 -236 103 -21 19 -42
46 -45 61 -29 120 -23 115 -171 128 -104 9 -143 24 -193 73 l-44 44 -104 -5
c-98 -6 -105 -5 -124 16 l-21 21 -72 -76 c-49 -52 -84 -79 -111 -88 -44 -14
-138 -9 -160 9 -8 6 -31 65 -52 129 -20 64 -50 143 -66 176 l-29 58 25 27 c14
15 26 33 26 40 0 8 -16 48 -35 91 -19 43 -35 85 -35 94 0 8 13 42 30 73 38 75
39 90 15 263 -13 88 -38 400 -38 473 0 51 -14 34 -21 -28 -4 -27 -11 -75 -16
-105 -5 -30 -12 -73 -15 -95 -7 -45 -8 -50 -29 -160 -8 -44 -17 -91 -20 -105
-9 -51 -48 -195 -56 -205 -19 -24 -170 -537 -170 -578 0 -59 191 -158 320
-166 60 -4 80 -23 80 -77 0 -56 -15 -94 -37 -94 -10 0 -41 16 -68 36 -54 38
-55 38 -144 6 -34 -13 -63 -17 -80 -13 -59 17 -221 -49 -406 -164 -263 -163
-292 -175 -319 -132 -32 51 -30 65 15 107 l43 39 -32 98 c-18 54 -35 109 -37
123 -3 14 -7 39 -10 55 -3 17 -7 54 -9 83 -3 64 -23 93 -97 145 -81 57 -128
103 -135 134 -17 67 36 233 118 369 82 137 153 202 207 191 16 -3 31 -3 34 0
10 9 -12 44 -51 85 -20 21 -33 41 -29 44 4 4 42 -4 84 -19 107 -36 189 -47
313 -43 126 4 172 20 188 65 14 40 3 46 -33 15 -65 -56 -110 -43 -110 32 0 38
-4 49 -15 47 -8 0 -57 -9 -109 -18 -102 -18 -271 -27 -290 -16 -13 8 29 78 84
140 29 32 103 82 135 89 60 15 161 12 235 -6 121 -31 240 -33 274 -4 38 30 34
202 -5 202 -19 0 -46 -44 -38 -63 7 -19 -12 -57 -28 -57 -7 0 -21 11 -33 25
-31 39 -103 48 -245 31 -43 -6 -60 -8 -125 -22 -47 -9 -139 -40 -173 -58 -37
-19 -71 -20 -95 -2 -17 13 -33 13 -106 1 -33 -5 -40 -4 -43 12 -3 15 10 117
27 213 22 122 26 406 6 443 -27 51 0 90 159 224 52 44 138 112 190 150 109 81
128 99 155 156 24 50 70 82 179 126 74 29 116 38 128 26 3 -3 0 -26 -5 -50 -7
-30 -7 -49 -1 -55 18 -18 104 50 283 225 197 193 182 178 240 228 25 20 50 37
56 37 6 0 25 -15 42 -32z m-2811 -1261 c225 -234 328 -359 340 -410 7 -34 -1
-85 -23 -139 -14 -35 -19 -39 -42 -33 -24 6 -116 54 -229 120 -74 43 -244 160
-314 215 -77 62 -79 43 18 190 65 99 118 160 139 160 6 0 56 -46 111 -103z
m-179 -579 c34 -33 34 -59 0 -52 -75 14 -87 15 -87 7 0 -18 61 -44 165 -68 58
-14 133 -36 165 -49 69 -28 150 -83 150 -102 0 -7 -16 -25 -35 -40 -43 -33
-44 -46 -4 -75 48 -34 73 -111 49 -149 -8 -12 -13 -12 -42 2 -18 9 -64 39
-103 68 -71 53 -86 61 -165 89 -37 13 -215 113 -255 143 -108 80 -150 128
-112 128 18 0 47 32 52 59 6 34 41 77 77 94 30 14 35 14 72 -5 23 -11 55 -34
73 -50z m2463 -1833 c136 -52 169 -62 228 -70 59 -8 84 -33 55 -56 -37 -31
-190 -4 -329 57 -91 40 -161 43 -101 4 66 -43 239 -106 318 -115 127 -16 157
-36 121 -85 -39 -53 -192 -116 -299 -124 -121 -8 -182 39 -228 177 -15 45 -30
109 -32 142 -4 52 -2 64 18 89 22 28 25 28 88 23 40 -3 103 -20 161 -42z"/>
<path d="M6617 4507 c-37 -133 -77 -280 -89 -327 -11 -47 -24 -89 -29 -94 -5
-6 -9 -17 -9 -26 0 -10 -13 -37 -30 -61 -16 -24 -30 -52 -30 -61 0 -48 104
-63 169 -25 l34 20 18 -22 c46 -56 4 -92 -82 -73 -28 7 -55 10 -60 6 -30 -18
21 -48 99 -59 38 -5 60 -14 77 -32 26 -29 52 -27 95 6 l25 20 -24 9 -24 8 27
22 c33 25 127 62 160 62 36 0 51 27 51 89 1 101 -31 213 -64 226 -21 8 -51
-29 -52 -64 -3 -86 -16 -212 -24 -233 -7 -19 -47 -38 -80 -38 -33 0 -32 23 0
66 36 47 32 54 -25 39 -46 -12 -51 -12 -60 5 -6 10 -10 26 -10 34 0 9 -11 23
-25 32 -20 13 -24 22 -19 43 l7 26 -26 -23 c-16 -15 -27 -39 -32 -68 -7 -47
-38 -87 -65 -82 -30 6 -17 71 41 201 21 48 39 97 39 109 0 35 7 17 14 -36 4
-27 9 -53 12 -58 14 -22 38 -2 64 55 35 72 39 109 13 106 -10 -1 -23 -1 -29 0
-13 1 -34 45 -34 72 0 18 5 20 38 16 52 -5 68 6 93 64 14 32 31 54 46 60 33
12 25 47 -26 112 -48 63 -95 117 -101 117 -3 0 -36 -109 -73 -243z"/>
</g>
</svg>
