<?xml version="1.0" encoding="iso-8859-1"?>
<!-- Generator: Adobe Illustrator 16.0.0, SVG Export Plug-In . SVG Version: 6.00 Build 0)  -->
<!DOCTYPE svg PUBLIC "-//W3C//DTD SVG 1.1//EN" "http://www.w3.org/Graphics/SVG/1.1/DTD/svg11.dtd">
<svg version="1.1" id="Layer_1" xmlns="http://www.w3.org/2000/svg" xmlns:xlink="http://www.w3.org/1999/xlink" x="0px" y="0px"
	 width="389.539px" height="489.482px" viewBox="0 0 389.539 489.482" style="enable-background:new 0 0 389.539 489.482;"
	 xml:space="preserve">
<g id="change1_1_">
	<path style="fill:#F7941E;" d="M376.689,0c0.585,0,1.178,0,1.771,0c1.397,7.007-4.749,17.438,8.964,18.477
		c-1.287,7.45-2.978,14.306-3.526,21.258c-0.513,6.421,0.189,12.938,0.388,20.756c-2.781,1.383-11.65,1.054-8.255,11.233
		c4.208-1.149,8.05-2.195,13.509-3.685c-3.417,5.58-5.935,9.688-8.569,13.995c2.276,1.178,4.237,2.203,6.623,3.439
		c-5.84,3.827-11.167,7.31-16.992,11.13c2.576,3.601,4.757,6.626,5.693,7.918c-7.83,12.246-15.147,23.713-23.388,36.61
		c1.589,3.615-1.316,6.359-6.3,9.333c-5.276,3.143-9.499,8.072-15.221,13.146c3.863,1.072,5.817,1.617,9.125,2.539
		c-15.953,12.469-29.14,26.508-48.568,31.298c-1.858,0.458-3.958,3.304-4.434,5.39c-2.803,12.235-6.169,24.47-7.457,36.903
		c-2.583,24.829-5.773,49.526-15.141,72.753c-9.71,24.09-3.388,43.833,13.34,61.937c2.152,2.342,3.776,6.571,3.381,9.623
		c-3.161,24.068-6.966,48.041-10.391,72.079c-2.049,14.336-14.68,20.768-26.754,12.88c-2.604-1.705-4.844-6.111-4.734-9.184
		c0.081-2.474,3.615-6.323,6.213-6.908c4.83-1.091,5.964-3.389,6.271-7.757c1.046-14.899,2.041-29.827,3.856-44.638
		c0.688-5.649-0.439-9.104-4.837-12.748c-16.253-13.516-26.571-31.005-32.249-51.238c-1.61-5.723-2.488-11.664-3.718-17.621
		c-1.317,0.469-2.013,0.498-2.283,0.849c-0.526,0.666-1.083,1.508-1.134,2.298c-1.317,21.748,0.432,42.735,14.635,60.825
		c1.728,2.195,3.33,5.598,2.964,8.145c-2.635,18.228-6.944,36.288-8.371,54.59c-0.922,11.935-7.069,15.367-16.743,16.97
		c-1.441,0.241-2.912,0.322-4.347,0.57c-6.326,1.068-11.844,0.879-13.125-7.281c-1.112-7.083,1.058-12.52,8.276-14.218
		c5.185-1.215,6.224-4.273,6.501-8.716c0.607-9.651,1.925-19.281,1.939-28.934c0.008-5.291-1.119-11.014-3.314-15.807
		c-12.444-27.134-25.345-54.048-38.155-81.014c-1.273-2.686-2.927-5.203-4.402-7.801c-2.268,2.283-4.994,4.259-6.714,6.893
		c-10.541,16.15-19.641,33.486-38,42.772c-1.431,0.725-2.144,3.856-2.298,5.935c-0.717,9.352-0.651,18.77-1.694,28.078
		c-3.136,27.895-6.491,55.775-10.099,83.619c-1.617,12.543-5.829,23.271-21.547,22.772c-4.694,0-9.393,0-14.087,0
		c-6.041-12.177-4.753-15.169,7.347-20.892c2.305-1.09,4.453-4.845,4.709-7.552c1.39-14.877,2.773-29.806,3.015-44.726
		c0.289-17.556-0.607-35.133-0.974-52.695c-0.11-5.371-2.47-7.361-7.347-5.568c-3.436,23.292-6.184,46.255-10.392,68.939
		c-2.919,15.733-7.504,31.203-12.14,46.549c-1.062,3.497-5.13,8.1-8.324,8.554c-8.569,1.186-17.405,0.402-25.978,0.402
		c-2.642-16.091-0.282-19.341,16.004-22.377c1.098-14.102,3.125-28.371,3.106-42.641c-0.026-24.836-0.45-49.745-2.324-74.494
		c-1.836-24.251-6.75-48.59,0.084-72.467c3.311-11.555,2.21-21.741-1.672-32.22c-2.609-7.065-4.373-15.32-9.206-20.534
		c-14.559-15.689-17.102-18.144-18.763-38.29c-2.225-26.915,4.263-52.603,12.371-78.907c2.045,1.873,3.523,2.857,4.522,4.2
		c5.412,7.256,9.25,17.424,16.439,21.115c7.241,3.718,17.778,1.018,26.867,1.171c0.86,0.011,1.789,0.179,2.561,0.538
		c5.905,2.744,8.979-0.168,11.88-5.086c4.391-7.457,9.418-14.529,14.186-21.755c1.142,0.095,2.287,0.197,3.428,0.303
		c4.72,24.547,9.436,49.099,14.544,75.684c2.261-4.208,3.505-7.051,5.199-9.594c11.665-17.507,22.22-35.937,35.414-52.219
		c26.41-32.593,65.161-26.212,88.051-1.416c6.688,7.248,12.711,15.55,17.152,24.324c5.92,11.671,9.901,24.32,14.994,36.431
		c0.856,2.035,3.14,3.469,4.764,5.181c1.712-1.914,4.734-3.707,4.925-5.755c0.988-11.148,1.28-22.363,1.939-36.164
		c6.417-6.278,0.329-15.363-0.842-23.808c3.184-3.856,6.535-7.947,7.317-12.48c1.515-8.77,1.581-17.796,2.13-25.034
		c10.647-5.137,14.423-14.014,16.545-24.138c1.852,1.537,3.71,3.07,7.164,5.931c4.486-9.86,8.416-18.492,12.191-26.779
		c0.695,1.954,1.705,4.771,3.827,10.662c6.615-10.72,11.95-19.344,17.46-28.25c2.107,0,6.674,1.303,9.806-0.26
		C362.778,9.619,369.598,4.537,376.689,0z"/>
</g>
<g id="change2">
	
		<rect x="66.629" y="171.12" transform="matrix(0.4327 0.9015 -0.9015 0.4327 201.7253 41.8252)" style="fill:#3C3636;" width="2" height="20.162"/>
	
		<rect x="57.548" y="196.201" transform="matrix(0.9015 0.4327 -0.4327 0.9015 91.9926 -9.8457)" style="fill:#3C3636;" width="20.162" height="2"/>
	
		<rect x="59.301" y="188.598" transform="matrix(0.9997 0.0232 -0.0232 0.9997 4.4267 -1.5618)" style="fill:#3C3636;" width="20.162" height="2"/>
	
		<rect x="14.291" y="180.201" transform="matrix(0.9015 0.4327 -0.4327 0.9015 80.8094 7.2969)" style="fill:#3C3636;" width="20.162" height="2"/>
	
		<rect x="23.372" y="187.12" transform="matrix(0.4327 0.9015 -0.9015 0.4327 191.6103 89.8997)" style="fill:#3C3636;" width="2" height="20.162"/>
	
		<rect x="21.619" y="179.517" transform="matrix(0.0234 0.9997 -0.9997 0.0234 211.6347 162.5408)" style="fill:#3C3636;" width="2" height="20.162"/>
	<polygon style="fill:#3C3636;" points="52.276,179.994 45.845,191.132 39.413,179.994 	"/>
	<path style="fill:#3C3636;" d="M26.249,152.584c-2.99,1.552-5.032,4.671-5.032,8.276c0,5.156,4.174,9.329,9.329,9.329
		c4.55,0,8.333-3.25,9.16-7.557L26.249,152.584z"/>
	<path style="fill:#3C3636;" d="M67.672,152.584c2.99,1.552,5.032,4.671,5.032,8.276c0,5.156-4.174,9.329-9.329,9.329
		c-4.55,0-8.333-3.25-9.16-7.557L67.672,152.584z"/>
</g>
</svg>
