<?xml version="1.0" standalone="no"?>
<!DOCTYPE svg PUBLIC "-//W3C//DTD SVG 20010904//EN"
 "http://www.w3.org/TR/2001/REC-SVG-20010904/DTD/svg10.dtd">
<svg version="1.0" xmlns="http://www.w3.org/2000/svg"
 width="220.000000pt" height="220.000000pt" viewBox="0 0 220.000000 220.000000"
 preserveAspectRatio="xMidYMid meet">
<metadata>
Created by potrace 1.15, written by Peter Selinger 2001-2017
</metadata>
<g transform="translate(0.000000,220.000000) scale(0.100000,-0.100000)"
fill="#000000" stroke="none">
<path d="M1048 2193 c-16 -2 -28 -9 -28 -14 0 -5 -9 -9 -19 -9 -28 0 -78 -21
-63 -27 20 -7 14 -26 -7 -20 -10 2 -26 -3 -34 -12 -32 -34 -48 -41 -92 -45
-24 -3 -49 -8 -55 -11 -6 -3 -38 -9 -73 -11 -34 -3 -66 -10 -71 -14 -5 -5 -16
-5 -26 0 -19 10 -63 -9 -90 -40 -10 -11 -22 -20 -28 -20 -5 0 -12 -8 -14 -18
-3 -10 -23 -26 -44 -36 -75 -33 -87 -43 -102 -87 -8 -24 -17 -46 -21 -49 -3
-3 -12 -16 -19 -30 -7 -14 -33 -38 -59 -54 -31 -20 -51 -42 -63 -72 -11 -24
-41 -71 -68 -106 -27 -35 -52 -72 -56 -83 -4 -11 -10 -73 -13 -137 -4 -91 -2
-121 9 -131 7 -8 19 -12 26 -9 15 5 16 -20 2 -34 -15 -15 6 -30 50 -38 l35 -7
-30 18 c-30 18 -45 56 -25 68 5 3 10 14 10 23 0 34 14 44 44 31 22 -10 24 -14
11 -21 -25 -15 -17 -23 24 -23 22 -1 38 2 36 5 -2 4 17 -4 43 -17 49 -25 51
-32 30 -86 -9 -22 -16 -28 -32 -24 -12 3 -39 10 -60 16 -22 5 -45 7 -50 3 -6
-4 -37 -5 -68 -3 l-58 3 0 -46 c0 -37 3 -46 18 -46 9 0 29 -6 44 -14 15 -8 53
-20 85 -27 99 -22 148 -44 151 -69 4 -25 9 -25 -230 -3 l-68 6 0 -40 c0 -40 0
-40 46 -47 26 -3 81 -6 123 -6 42 0 93 -3 113 -6 33 -6 37 -10 43 -46 4 -22 5
-41 3 -44 -3 -2 -65 -6 -139 -9 -174 -7 -189 -10 -189 -42 l0 -25 108 5 c59 2
128 7 155 9 51 5 53 2 41 -59 -6 -29 -8 -30 -92 -43 -48 -7 -92 -17 -99 -22
-6 -5 -24 -8 -40 -7 -59 4 -73 0 -73 -23 0 -22 3 -23 69 -20 51 3 72 0 83 -12
9 -8 24 -13 34 -10 34 9 68 -39 68 -96 0 -57 0 -56 -36 -65 -27 -7 -28 -6 -22
24 8 40 -10 41 -24 2 -9 -27 -14 -29 -56 -29 -26 1 -49 -1 -52 -4 -10 -11 8
-57 34 -87 15 -17 37 -43 49 -58 39 -50 64 -73 78 -73 19 0 19 14 0 30 -8 7
-15 17 -15 22 0 5 -13 29 -30 53 -16 24 -30 48 -30 53 0 5 12 15 28 23 15 7
30 15 34 17 3 2 16 -16 27 -40 12 -24 34 -63 50 -88 35 -54 37 -66 11 -80 -31
-17 -24 -28 19 -28 30 -1 53 8 93 37 58 41 118 60 118 38 0 -7 -6 -19 -13 -26
-10 -11 -4 -13 37 -7 27 3 82 6 122 6 l74 0 0 30 c0 22 5 30 18 30 14 0 15 -2
2 -10 -11 -7 3 -10 47 -10 69 0 82 9 53 35 -16 14 -24 15 -51 6 -37 -13 -64
-14 -34 -1 18 8 17 9 -8 9 -16 1 -26 -3 -22 -9 3 -5 1 -10 -4 -10 -6 0 -11 8
-11 18 0 9 -3 27 -6 39 -6 20 -3 21 63 21 37 0 100 1 138 3 l70 4 3 39 c2 21
10 49 18 61 10 15 13 36 9 61 -6 40 6 65 35 77 10 4 8 6 -8 6 -12 1 -30 10
-39 21 -10 11 -25 20 -35 20 -14 0 -58 48 -58 64 0 14 29 -7 33 -25 3 -12 14
-19 29 -19 13 0 32 -9 41 -21 19 -22 48 -20 112 5 24 10 35 10 55 -1 14 -7 32
-13 41 -13 21 0 79 65 79 88 0 17 87 69 97 58 3 -3 0 -60 -7 -127 -9 -97 -9
-123 1 -130 10 -6 10 -11 0 -23 -16 -19 -8 -32 28 -51 18 -9 30 -25 34 -43 3
-16 14 -38 24 -47 13 -13 14 -20 5 -23 -14 -4 -16 -48 -2 -57 7 -4 6 -14 -1
-28 -7 -12 -13 -38 -15 -59 l-3 -38 111 0 c125 0 140 8 131 67 -4 24 -2 33 8
33 10 0 10 3 1 12 -22 22 -13 29 26 22 33 -6 36 -6 24 9 -8 9 -22 19 -33 22
-25 8 -25 29 1 22 10 -3 37 1 58 9 58 19 132 14 146 -11 24 -44 48 -41 42 6
-1 16 -6 32 -9 36 -15 14 -5 22 36 31 35 8 37 10 13 11 -16 1 -35 9 -42 18
-12 16 -12 16 -7 -5 3 -12 3 -22 -1 -22 -9 0 -36 58 -52 109 -7 25 -25 62 -39
81 -27 36 -33 75 -12 82 6 3 46 3 88 2 81 -2 116 8 89 26 -13 9 -13 10 0 10 9
0 21 -5 28 -12 7 -7 12 -8 12 -2 0 5 -12 17 -26 27 -20 15 -28 16 -39 7 -8 -7
-15 -9 -15 -5 0 4 -6 2 -13 -4 -10 -8 -19 -6 -35 10 -14 13 -22 15 -22 7 0 -7
-6 -1 -14 13 -18 35 -15 94 5 93 7 0 22 8 32 18 16 17 16 18 -1 18 -10 0 -23
-5 -29 -11 -8 -8 -13 -8 -17 0 -4 6 -4 11 1 11 4 0 1 5 -7 10 -10 6 -11 10 -2
10 30 0 3 42 -36 54 -12 4 -22 14 -22 22 0 8 5 12 10 9 6 -3 10 -1 10 4 0 6 3
10 8 10 18 -3 32 2 32 12 0 6 -6 9 -12 7 -13 -5 -50 27 -42 35 2 2 -3 10 -11
17 -13 11 -18 10 -28 -4 -12 -16 -14 -16 -32 5 -14 16 -16 23 -7 26 6 3 12 11
12 18 0 7 12 16 28 20 15 4 21 10 15 12 -16 6 -17 35 -1 51 9 9 5 12 -20 12
-33 0 -38 5 -23 29 6 10 5 22 -5 35 -15 22 -20 156 -6 156 4 0 37 -16 74 -35
l66 -35 17 37 c9 21 26 57 38 80 11 24 17 46 14 50 -4 4 -13 -8 -19 -25 -14
-35 -32 -42 -43 -14 -5 14 -11 9 -27 -23 -12 -22 -23 -35 -25 -28 -3 9 -12 9
-29 2 -14 -5 -27 -9 -28 -9 -2 0 -6 41 -8 92 -3 66 0 100 10 120 16 34 27 35
43 7 8 -15 13 -18 19 -10 4 7 20 11 36 9 25 -3 29 -7 26 -30 -3 -32 9 -42 31
-25 24 18 31 68 13 92 -15 19 -15 19 -16 -7 0 -16 -4 -28 -10 -28 -5 0 -10 7
-10 16 0 10 -6 14 -15 11 -8 -4 -17 -2 -20 4 -4 5 -10 7 -14 4 -5 -2 -19 4
-31 15 -13 11 -29 20 -37 20 -7 0 -13 6 -13 14 0 13 4 13 28 0 15 -7 33 -14
41 -14 7 0 11 -6 8 -13 -3 -8 1 -14 9 -14 9 0 13 6 9 14 -3 8 -5 17 -5 19 0 3
-11 9 -25 14 -14 5 -25 15 -25 22 0 7 11 13 25 13 14 0 25 -6 25 -12 0 -7 5
-13 12 -13 6 0 22 -10 35 -22 13 -12 26 -18 30 -14 5 5 -3 16 -17 25 -13 9
-41 34 -62 56 -20 22 -59 64 -86 93 -32 34 -58 75 -72 112 -12 33 -28 65 -36
71 -8 6 -14 21 -14 33 0 17 -2 18 -10 6 -9 -13 -12 -13 -21 3 -5 9 -19 17 -29
17 -11 0 -36 9 -56 20 -28 16 -39 18 -50 9 -12 -10 -13 -9 -8 5 3 9 1 16 -5
16 -7 0 -26 13 -44 30 -18 16 -37 30 -43 30 -6 0 -36 14 -68 31 -40 22 -56 36
-52 46 4 11 2 13 -9 9 -8 -3 -15 -1 -15 4 0 10 -194 12 -252 3z m122 -274 c19
-28 34 -59 33 -68 -1 -10 9 -23 21 -29 13 -6 40 -25 60 -42 20 -18 53 -38 74
-45 25 -9 39 -21 42 -36 4 -16 8 -20 14 -11 4 6 14 12 22 12 13 0 14 -20 8
-140 l-7 -139 30 -28 c22 -22 32 -43 41 -94 16 -88 15 -134 -2 -148 -12 -10
-15 -38 -14 -127 1 -63 -1 -116 -4 -119 -3 -3 -26 4 -51 15 -36 16 -46 26 -49
48 -3 25 -7 27 -51 30 -33 2 -51 9 -59 21 -9 15 -20 18 -50 14 -28 -4 -38 -2
-38 8 0 8 -12 -1 -26 -18 -19 -25 -33 -33 -58 -33 -31 0 -34 3 -46 48 -7 26
-18 53 -23 60 -8 10 -7 16 2 21 10 7 10 15 -3 40 -15 28 -15 34 -2 53 9 12 13
32 10 44 -3 13 -9 65 -13 116 l-6 93 -17 -107 c-10 -59 -22 -116 -27 -125 -8
-15 -32 -92 -56 -180 -5 -18 1 -26 34 -43 22 -11 52 -20 66 -20 20 0 25 -5 25
-23 0 -33 -10 -40 -32 -20 -16 14 -23 15 -38 5 -11 -6 -26 -9 -33 -6 -20 7
-80 -19 -155 -68 -52 -34 -65 -39 -73 -27 -12 20 -11 27 6 37 14 7 14 12 0 45
-8 20 -15 52 -15 71 0 28 -6 38 -34 55 -19 12 -36 28 -39 35 -18 46 70 201
103 181 16 -10 12 11 -5 25 -23 19 -12 22 26 6 33 -14 116 -15 138 -2 6 4 11
12 11 19 0 8 -3 8 -12 -1 -20 -20 -41 -15 -35 8 4 16 1 20 -11 16 -40 -11
-122 -17 -122 -9 0 5 12 23 28 41 29 34 69 42 127 25 17 -5 42 -7 58 -5 24 3
27 8 27 38 0 24 -4 34 -12 31 -7 -2 -12 -11 -10 -21 3 -17 -14 -23 -20 -6 -7
20 -117 9 -168 -17 -15 -8 -26 -9 -28 -3 -2 6 -15 7 -29 4 -25 -7 -25 -5 -20
27 15 80 19 170 8 183 -9 11 -2 23 36 56 26 23 65 54 86 68 20 13 37 32 37 41
0 9 17 23 43 34 54 22 60 21 52 -3 -12 -37 15 -20 93 58 42 44 82 79 87 80 6
1 26 -21 45 -49z m-867 -407 c57 -63 66 -77 61 -100 -4 -15 -10 -31 -14 -35
-6 -7 -113 56 -172 102 l-27 22 31 49 c19 31 35 47 43 42 6 -4 41 -40 78 -80z
m-110 -126 c24 -18 21 -29 -5 -21 -17 6 -20 4 -12 -4 6 -7 28 -14 50 -18 21
-3 54 -14 72 -25 31 -19 32 -21 15 -34 -17 -13 -17 -15 0 -25 18 -10 24 -49 8
-49 -5 0 -23 11 -39 25 -17 14 -36 25 -44 25 -8 0 -43 19 -79 42 -44 29 -59
43 -46 46 9 2 17 9 17 16 0 15 20 36 35 36 5 0 18 -7 28 -14z m799 -590 c21
-9 47 -16 59 -16 12 0 19 -5 16 -12 -5 -17 -51 -11 -104 12 -24 11 -43 15 -43
10 0 -10 79 -42 113 -45 36 -4 37 -4 37 -18 0 -18 -64 -47 -104 -47 -40 0 -57
18 -72 76 -17 67 9 78 98 40z"/>
<path d="M2082 1425 c-11 -39 -26 -91 -32 -118 -7 -26 -17 -50 -21 -53 -5 -3
-9 -11 -9 -17 0 -16 40 -20 56 -6 8 6 13 5 17 -5 8 -20 -2 -27 -31 -19 -17 4
-23 2 -18 -6 4 -6 18 -11 31 -11 13 0 25 -5 27 -12 3 -8 9 -8 24 0 14 8 15 12
4 12 -20 1 30 29 53 30 18 0 21 17 11 69 -9 43 -32 40 -33 -4 -3 -59 -4 -64
-19 -70 -22 -8 -27 2 -11 21 12 15 11 16 -9 10 -16 -6 -22 -3 -22 8 0 9 -5 16
-11 16 -5 0 -7 5 -3 12 4 7 3 8 -4 4 -7 -4 -12 -15 -12 -26 0 -10 -7 -20 -15
-24 -12 -4 -14 0 -9 22 4 15 10 32 14 37 4 6 10 19 13 30 4 18 5 18 6 -2 1
-32 15 -29 28 6 8 23 8 28 -2 25 -7 -3 -15 4 -17 14 -4 15 -1 18 14 14 14 -3
21 2 25 17 3 11 9 21 14 21 16 0 10 18 -15 47 l-24 28 -20 -70z"/>
</g>
</svg>
